# xmcd
#
# Track frame offsets:
#	150
#	16912
#	32052
#	46990
#	67912
#	86755
#	105140
#	122325
#	138962
#	156727
#	175032
#	193130
#
# Disc length: 2774 seconds
#
# Revision: 1
# Processed by: cddbd v1.5.1PL0 Copyright (c) Steve Scherf et al.
# Submitted via: EasyCDDAExtractor 5.0.6
#
DISCID=930ad40c
DTITLE=Jo Dee Messina - Burn -2000
DYEAR=1900
DGENRE=Country
TTITLE0=Downtime 
TTITLE1=That's The Way
TTITLE2=Dare To Dream 
TTITLE3=Burn
TTITLE4=If Not You 
TTITLE5=Closer 
TTITLE6=These Are The Days 
TTITLE7=Saturday Night 
TTITLE8=Angelene 
TTITLE9=Nothing I Can Do
TTITLE10=Bring On The Rain (With Tim Mcgraw). 
TTITLE11=That's The Way
EXTD=Curb Records -2000
EXTT0=
EXTT1=
EXTT2=
EXTT3=
EXTT4=
EXTT5=
EXTT6=
EXTT7=
EXTT8=
EXTT9=
EXTT10=
EXTT11=
PLAYORDER=
